<?xml version="1.0" encoding="UTF-8"?>
<svg id="Layer_1" data-name="Layer 1" xmlns="http://www.w3.org/2000/svg" viewBox="0 0 2591.96 40.8">
  <defs>
    <style>
      .cls-1 {
        fill: #202020;
        stroke-width: 0px;
      }
    </style>
  </defs>
  <path class="cls-1" d="M0,0c.02,1.91.07,3.76.15,5.52.31,7.38,1,13.31,1.53,18.19,4.82-.42,8.82-.74,12.16-.7,3.35.04,6.06.45,8.48,1.5l-2.89.38c2.94-.13,5.49-.27,7.72-.4,2.2-.14,4.26-.27,5.42-.41,2.65-.28,4.46-.57,5.7-.88,2.47-.61,2.63-1.29,2.5-2.06-.13-.77-.53-1.64.75-2.65h17.09s12.64,7.74,12.64,7.74l3.59-4.58c3.77.16,11.22.51,9.84,2.34,14.02-3.14-2.39-1.99,5.75-4.95,18.14,4.17,50.01-1.95,54.09,5.34,6.51-3.48-17.35-2.68,2.02-5.1,5.52,7.85,22.38-1.34,38.95,2.26-5.09,4.05-20.78,1.9-4.2,5.52,10-6.84,32.26,1.5,46.24.19.66-5.45,30.39-2.27,53.84-4.09-1.48,1.83,44.13,3,65.94,4.97l-.64.92c4.22-5.51,26.73-4.47,43.11-5.61-.64,3.3-3.59,4.6-12.47,6.07l15.4-.03c3.63-1.77,8.44-2.7,18.43-3.33l-3.87,4.12c20.5-.23,41.29-4.85,67.66-2.1,1-2.6-8.97-6.58-6.85-9.68h14.31c-.48,1.3-2.02,2.46-5.78,2.9,2.39-.27,8.53-1.72,13.34-.84l-11.14,3.49c12.01,1.53,6.28-2.92,15.89-2.59-.19,2.96,7.11,2.11,5.73,4.46-2.45.29-8.38-1.22-12.06-.06,10.83.53,23.92,2.28,28.25,4.53-.94-1.68,0-3.99,7.93-4.37,20.5-.22,7.02,3.56,18.98,5.09,4.96-2.06,18.04.07,18.39-4.35,6,.02,7.11,2.09,9.43,3.28,10.61-1.95,49.56-.56,37.6-5.27l-2.72-.31c.51-.09,1.11-.1,1.73-.19,34.78-4.4,72.24,2.51,106.75.61l-.06,1.48c20.6-1.69,45.85-1,60.56-4.19,6.09,0,14.38,2.7,11.77,4.47,15.75-1.11,17.51-2.78,40.26-.33-15.83,2.58,5.46,2.29-16.22,1.89,20.46,1.28,25.09,3.65,47.06-.4-7.48,3.79,15.4,4.78,25.13,3.64l-14.34-2.71c10.93-.55,20.5-.22,30.21.11l-5.25,4.99c41.87,6.07,75.5-10.33,107.37-.17,11.08-3.49-22.74-2.46-12.83-6.54,19.26.67,39.32,7.84,45.35,7.85,26.38,2.76,24.61-7.29,52.22-5.4-3.53-1.78-6.86-6.53,13.77-8.21,19.28.66,23.69,7.47,11.52,8.89-4.62.15-6.85-.42-6.66-1.02-6.23.65-14.4,1.41-6.77,3.34l2.5-1.78c9.56,1.82,36.08,1.63,29.85,4.54,12.41-1.44,8.19-2.55-.01-3.41,21.97,1.85,35.67-.24,59.51,1.38-4.05-.98-7.77-3.07-3.74-3.05,37.32,2.21,16.43-3.38,41.72-4.16,14.37,2.71-5.15,6.48,20.31,4.2,15.54,1.84,3.29,4.72-2.89,6.17,23.19-3.43,43.33,2.26,56.58,2.89l-12.22,1.44c7.31-.85,13.29-.83,19.38-.82l-6.97-3.56c7.17.62,13.24.63,13.11,2.12,7.39-2.33-5.66-5.92,9.01-9.11,9.56,1.81,29.12-1.94,32.42,2.78-27.05-1.44-2.76,3.55-16.12,5.12,3.58-.07,7.6.08,12.08.47,1.08.53-1.02.98-2.98,1.25,28.78,4.22,13.23-5.34,43.05-5.23-3.79,2.66,6.91,5.05,11.78,4.48-12.02-.05-5.75-4.44,5.28-6.48,19.12,2.07,20.78-1.54,30.8-1.3l-11.43-.97c3.87-2.66,13.43-2.31,26.77-3.15.34.61-.59.99-1.93,1.24,13.83-1.49,30.47,5.58,48.66,2.8,9.56,1.8.93,5,9.32,6.22,23.13-3.45,25.05,3.65,49.36.79-7.01-3.58-8.23-2.7,8.89-6.19l-39.97,2.52,25.65-5.2c-12.06-.05-25.45,2.25-32.68,1.64,12.22-2.92,10.96-2.03,5.19-5,16.51,5.37,32.72-3.13,51.8.5l-.58,8.86c28.68,3.95,50.96-4.54,88.21-2.32l-11.97-1.54c5-3.52,23-.49,35.06-1.92-1.12,2.96,6.42,4.04,11.57,5.88-.63-2.2,27.26.2,30.65-5.71l16.63,3.9c30.08,1.6,34.32-8.44,63.23-7.43-8.71,3.22,4.43,5.32-14.94,7.62,9.65.03,18.33.57,18.49-1.48,5.64,1.85,26.77-3.99,35.64-1.18,4.07-1.3,5.4-4.4,16.24-4.16.7.36.55.8.32,1.1,2.39-1.21,15.79-1.91,7.13-4.91,29.73,9.24,83.1-.67,108.99,7.26,21.07-.99,46.45-1.95,65.57-2.16-1.23.89-.06,1.48-3.68,1.17,26.38,2.75,16.22-8.5,46.24-5.43,15.33,4.79-15.94,2.59-6.38,4.4,4.16,9.75,36.23-1.33,56.43,4.36l-4.89.57c15.44,3.31,37.68-3.69,62.9-3,0,0-1.23.86-.15,1.47,17.25-4.97,49.91-6.61,74.19-7.99-7.55,3.81-11.03,2.02-6.42,5.89,10.88-.55-3.19-6.22,18.53-7.31,7.06,2.09,22.73,3.91,24.8,8.05l-20.48.22c10.49,5.35,26.51-.18,37.31.75l-1.38,2.34c31.39-.76,31.83-6.65,65.57-6.23l-3.49-1.77c18.44-5.83,15.46,3.28,33.85-1.05l5.57,5.92c12.17-1.43,42.62-5.72,64.43-6.84-12.36,4.39-37.89,6.64-53.69,9.24,12.06.04,40.98-.44,47.27-3.36-4.86.57-10.98,2.02-15.78,1.11,14.8-4.65,34.26-6.94,58.29-6.84-1.39,3.75,4.82,5.36,14.43,6.14,5.1.39,9.22.57,19.24.7,8.85.14,18.22.23,27.51.44.22-9.42.58-18.5,1.27-26.6.11-1.33.24-2.62.37-3.89H0Z"/>
</svg>